<svg id="logo" xmlns="http://www.w3.org/2000/svg" width="277.653" height="277.653" viewBox="0 0 277.653 277.653">
  <rect id="Rectangle_109" data-name="Rectangle 109" width="277.653" height="277.653" fill="#3e3d40"/>
  <path id="Tracé_72" data-name="Tracé 72" d="M15.552,33.746H29.568L64.184,89.608h.21V33.746H77.032v75.821H63.012L28.505,53.814h-.321v55.753H15.552Z" transform="translate(22.531 48.89)" fill="#c9d200"/>
  <path id="Tracé_73" data-name="Tracé 73" d="M45.953,33.746H98.121v11.47H59.232v19.86H95.04V75.909H59.232V98.1H98.865v11.468H45.953Z" transform="translate(66.573 48.89)" fill="#c9d200"/>
  <path id="Tracé_74" data-name="Tracé 74" d="M85.56,98.731H98.624a33.023,33.023,0,0,0,12.689-2.067,18.408,18.408,0,0,0,7.75-5.742,20.584,20.584,0,0,0,3.825-8.59,56.957,56.957,0,0,0,0-21.346,20.733,20.733,0,0,0-3.825-8.6,18.62,18.62,0,0,0-7.75-5.735,33.02,33.02,0,0,0-12.689-2.069H85.56ZM72.285,33.746h31.437A35.357,35.357,0,0,1,118.8,36.724a27.98,27.98,0,0,1,10.407,8.122,34.67,34.67,0,0,1,6,12.055,56.437,56.437,0,0,1,0,29.517,34.637,34.637,0,0,1-6,12.053A27.986,27.986,0,0,1,118.8,106.6a35.506,35.506,0,0,1-15.077,2.97H72.285Z" transform="translate(104.722 48.889)" fill="#c9d200"/>
  <path id="Tracé_75" data-name="Tracé 75" d="M21.067,72.685l2.671,7.506h.03V72.685H25.8v10.96H23.278l-2.7-7.676h-.032v7.676H18.519V72.685Z" transform="translate(26.83 105.301)" fill="#fff"/>
  <path id="Tracé_76" data-name="Tracé 76" d="M25.234,80.946c.86,0,1.136-.845,1.136-2.9s-.277-2.9-1.136-2.9c-1.043,0-1.136,1.212-1.136,2.9s.093,2.9,1.136,2.9m0-7.246c2.549-.047,3.254,1.472,3.254,4.344,0,2.823-.83,4.342-3.254,4.342-2.547.049-3.254-1.472-3.254-4.342,0-2.826.83-4.344,3.254-4.344" transform="translate(31.843 106.772)" fill="#fff"/>
  <path id="Tracé_77" data-name="Tracé 77" d="M29.339,81.078h-.032a2.268,2.268,0,0,1-2.1,1.183c-1.32,0-2.1-.722-2.1-2.348V73.788h2.118v5.693c0,.828.277,1.151.906,1.151.722,0,1.119-.443,1.119-1.366V73.788h2.118v8.257H29.339Z" transform="translate(36.368 106.9)" fill="#fff"/>
  <path id="Tracé_78" data-name="Tracé 78" d="M32.524,73.787h2.118L32.57,82.046H30.113l-2.132-8.259H30.19L31.372,79.7h.03Z" transform="translate(40.537 106.899)" fill="#fff"/>
  <path id="Tracé_79" data-name="Tracé 79" d="M35.179,77.106c-.047-1.259-.2-1.964-1.075-1.964-.842,0-1.09.874-1.09,1.643v.321Zm-2.165,1.259v.661c0,.967.262,1.92,1.043,1.92.708,0,1-.539,1.122-1.552h1.905c-.078,1.92-1,2.992-2.995,2.992-3.068,0-3.193-2.361-3.193-4.42,0-2.209.431-4.266,3.284-4.266,2.473,0,3.024,1.658,3.024,4.19v.475Z" transform="translate(44.76 106.772)" fill="#fff"/>
  <rect id="Rectangle_110" data-name="Rectangle 110" width="2.118" height="10.96" transform="translate(83.15 177.985)" fill="#fff"/>
  <rect id="Rectangle_111" data-name="Rectangle 111" width="2.118" height="10.96" transform="translate(86.835 177.985)" fill="#fff"/>
  <path id="Tracé_80" data-name="Tracé 80" d="M41.092,77.106c-.047-1.259-.2-1.964-1.075-1.964-.845,0-1.09.874-1.09,1.643v.321Zm-2.165,1.259v.661c0,.967.26,1.92,1.046,1.92.7,0,1-.539,1.119-1.552H43c-.078,1.92-1,2.992-2.995,2.992-3.071,0-3.193-2.361-3.193-4.42,0-2.209.429-4.266,3.284-4.266,2.471,0,3.024,1.658,3.024,4.19v.475Z" transform="translate(53.327 106.772)" fill="#fff"/>
  <path id="Tracé_81" data-name="Tracé 81" d="M41.6,79.472v.274a1.061,1.061,0,0,0,1.107,1.2.94.94,0,0,0,1.075-.982.972.972,0,0,0-.769-.938l-1.489-.539a2.285,2.285,0,0,1-1.766-2.3c0-1.364.86-2.485,3.041-2.485,1.917,0,2.823.86,2.823,2.348v.338H43.714c0-.83-.245-1.241-.935-1.241a.9.9,0,0,0-1,.889c0,.4.215.735.923.965l1.273.431A2.214,2.214,0,0,1,45.8,79.792c0,1.736-1.288,2.6-3.071,2.6-2.378,0-3.039-1.046-3.039-2.625v-.291Z" transform="translate(57.505 106.772)" fill="#fff"/>
  <path id="Tracé_82" data-name="Tracé 82" d="M50.275,72.685v1.81H46.362v2.579h3.683v1.812H46.362v2.946H50.43v1.812H44.151V72.685Z" transform="translate(63.963 105.302)" fill="#fff"/>
  <path id="Tracé_83" data-name="Tracé 83" d="M47.142,73.913h2.025v.967H49.2a2.262,2.262,0,0,1,2.1-1.18c1.32,0,2.1.72,2.1,2.348v6.124H51.285V76.479c0-.83-.274-1.153-.9-1.153-.722,0-1.122.446-1.122,1.366v5.48H47.142Z" transform="translate(68.297 106.772)" fill="#fff"/>
  <path id="Tracé_84" data-name="Tracé 84" d="M54.434,77.106c-.047-1.259-.2-1.964-1.075-1.964-.842,0-1.09.874-1.09,1.643v.321Zm-2.165,1.259v.661c0,.967.262,1.92,1.043,1.92.708,0,1-.539,1.122-1.552h1.905c-.078,1.92-1,2.992-2.995,2.992-3.068,0-3.193-2.361-3.193-4.42,0-2.209.431-4.266,3.284-4.266,2.473,0,3.024,1.658,3.024,4.19v.475Z" transform="translate(72.656 106.772)" fill="#fff"/>
  <path id="Tracé_85" data-name="Tracé 85" d="M53.18,73.913h2.025V75.02h.032a2.134,2.134,0,0,1,1.9-1.32,2.906,2.906,0,0,1,.384.032v2.025c-.215-.015-.446-.032-.661-.032A1.429,1.429,0,0,0,55.3,77.214v4.959H53.18Z" transform="translate(77.044 106.772)" fill="#fff"/>
  <path id="Tracé_86" data-name="Tracé 86" d="M58.375,80.451c.891,0,1.153-.965,1.153-2.361,0-2.013-.262-2.765-1.107-2.765-.938,0-1.1.752-1.1,2.978,0,1.136.167,2.148,1.058,2.148m3.178-6.538v7.843c0,2.182-.967,3.24-3.438,3.24-1.8,0-2.809-.8-2.809-2.209h2.025a.74.74,0,0,0,.321.629,1.268,1.268,0,0,0,.708.228c.862,0,1.168-.642,1.168-1.486v-1.09H59.5a2.234,2.234,0,0,1-1.766,1.011c-1.69,0-2.532-1.151-2.532-4.175,0-1.932.291-4.2,2.593-4.2a1.841,1.841,0,0,1,1.7,1.136h.032v-.923Z" transform="translate(79.969 106.772)" fill="#fff"/>
  <path id="Tracé_87" data-name="Tracé 87" d="M58.434,75.457h2.118v8.26H58.434Zm0-2.823h2.118v1.812H58.434Z" transform="translate(84.656 105.228)" fill="#fff"/>
  <path id="Tracé_88" data-name="Tracé 88" d="M64.065,77.106c-.047-1.259-.2-1.964-1.075-1.964-.842,0-1.09.874-1.09,1.643v.321ZM61.9,78.365v.661c0,.967.262,1.92,1.043,1.92.708,0,1-.539,1.122-1.552h1.9c-.076,1.92-1,2.992-2.992,2.992-3.071,0-3.193-2.361-3.193-4.42,0-2.209.431-4.266,3.284-4.266,2.473,0,3.027,1.658,3.027,4.19v.475Z" transform="translate(86.609 106.772)" fill="#fff"/>
  <path id="Tracé_89" data-name="Tracé 89" d="M64.571,79.472v.274a1.06,1.06,0,0,0,1.1,1.2.938.938,0,0,0,1.073-.982.973.973,0,0,0-.766-.938l-1.489-.539a2.281,2.281,0,0,1-1.763-2.3c0-1.364.857-2.485,3.036-2.485,1.92,0,2.826.86,2.826,2.348v.338h-1.9c0-.83-.247-1.241-.938-1.241a.9.9,0,0,0-1,.889c0,.4.213.735.921.965l1.273.431a2.214,2.214,0,0,1,1.827,2.363c0,1.736-1.288,2.6-3.071,2.6-2.38,0-3.039-1.046-3.039-2.625v-.291Z" transform="translate(90.787 106.772)" fill="#fff"/>
  <path id="Tracé_90" data-name="Tracé 90" d="M69.379,82.015h.982c1.533,0,1.844-.965,1.844-3.942,0-2.488-.2-3.761-1.89-3.761h-.935Zm-2.211-9.33h3.624c3.068,0,3.622,2.1,3.622,5.324,0,3.884-.828,5.635-3.761,5.635H67.168Z" transform="translate(97.309 105.302)" fill="#fff"/>
  <path id="Tracé_91" data-name="Tracé 91" d="M70.729,75.457h2.118v8.26H70.729Zm0-2.823h2.118v1.812H70.729Z" transform="translate(102.468 105.228)" fill="#fff"/>
  <path id="Tracé_92" data-name="Tracé 92" d="M73.962,79.472v.274a1.061,1.061,0,0,0,1.107,1.2.938.938,0,0,0,1.073-.982.973.973,0,0,0-.766-.938l-1.489-.539a2.283,2.283,0,0,1-1.766-2.3c0-1.364.86-2.485,3.039-2.485,1.92,0,2.826.86,2.826,2.348v.338H76.08c0-.83-.245-1.241-.935-1.241a.9.9,0,0,0-1,.889c0,.4.215.735.923.965l1.273.431a2.214,2.214,0,0,1,1.827,2.363c0,1.736-1.29,2.6-3.071,2.6-2.38,0-3.039-1.046-3.039-2.625v-.291Z" transform="translate(104.395 106.772)" fill="#fff"/>
  <path id="Tracé_93" data-name="Tracé 93" d="M75.812,72.822h2.118v2.365h1.227V76.63H77.931v4.464c0,.646.137.906.752.906a3.953,3.953,0,0,0,.475-.029v1.474a13.216,13.216,0,0,1-1.381.091c-1.658,0-1.964-.507-1.964-2.177V76.63H74.735V75.187h1.077Z" transform="translate(108.272 105.5)" fill="#fff"/>
  <path id="Tracé_94" data-name="Tracé 94" d="M76.843,73.913h2.025V75.02H78.9a2.134,2.134,0,0,1,1.9-1.32,2.836,2.836,0,0,1,.382.032v2.025c-.213-.015-.443-.032-.659-.032a1.429,1.429,0,0,0-1.565,1.489v4.959H76.843Z" transform="translate(111.326 106.772)" fill="#fff"/>
  <path id="Tracé_95" data-name="Tracé 95" d="M78.962,75.457H81.08v8.26H78.962Zm0-2.823H81.08v1.812H78.962Z" transform="translate(114.396 105.228)" fill="#fff"/>
  <path id="Tracé_96" data-name="Tracé 96" d="M83.675,82.233c.921,0,1.1-.923,1.1-2.718S84.6,76.8,83.675,76.8s-1.122.923-1.122,2.718.186,2.718,1.122,2.718m-3.24-9.548h2.118v3.467h.032a1.979,1.979,0,0,1,1.78-.982c1.734,0,2.534,1.273,2.534,4.344s-.8,4.344-2.534,4.344a2,2,0,0,1-1.873-1.09h-.029v.874H80.435Z" transform="translate(116.53 105.302)" fill="#fff"/>
  <path id="Tracé_97" data-name="Tracé 97" d="M87.806,81.078h-.029a2.268,2.268,0,0,1-2.1,1.183c-1.32,0-2.1-.722-2.1-2.348V73.788h2.118v5.693c0,.828.277,1.151.906,1.151.722,0,1.122-.443,1.122-1.366V73.788h2.118v8.257H87.806Z" transform="translate(121.071 106.9)" fill="#fff"/>
  <path id="Tracé_98" data-name="Tracé 98" d="M87.529,72.822h2.118v2.365h1.229V76.63H89.647v4.464c0,.646.14.906.754.906a3.953,3.953,0,0,0,.475-.029v1.474a13.172,13.172,0,0,1-1.381.091c-1.658,0-1.966-.507-1.966-2.177V76.63H86.454V75.187h1.075Z" transform="translate(125.25 105.5)" fill="#fff"/>
  <path id="Tracé_99" data-name="Tracé 99" d="M88.593,75.457h2.118v8.26H88.593Zm0-2.823h2.118v1.812H88.593Z" transform="translate(128.348 105.228)" fill="#fff"/>
  <path id="Tracé_100" data-name="Tracé 100" d="M93.206,80.946c.86,0,1.136-.845,1.136-2.9s-.277-2.9-1.136-2.9c-1.043,0-1.134,1.212-1.134,2.9s.091,2.9,1.134,2.9m0-7.246c2.549-.047,3.254,1.472,3.254,4.344,0,2.823-.828,4.342-3.254,4.342-2.549.049-3.252-1.472-3.252-4.342,0-2.826.828-4.344,3.252-4.344" transform="translate(130.32 106.772)" fill="#fff"/>
  <path id="Tracé_101" data-name="Tracé 101" d="M93.076,73.913H95.1v.967h.032a2.264,2.264,0,0,1,2.1-1.18c1.322,0,2.1.72,2.1,2.348v6.124H97.219V76.479c0-.83-.274-1.153-.9-1.153-.722,0-1.122.446-1.122,1.366v5.48H93.076Z" transform="translate(134.843 106.772)" fill="#fff"/>
  <path id="Tracé_102" data-name="Tracé 102" d="M26.222,71.656V68.781h-10.7V99.6h10.7V96.73H18.4V71.656Z" transform="translate(22.487 99.646)" fill="#c9d200"/>
  <path id="Tracé_103" data-name="Tracé 103" d="M94.261,96.73V99.6h10.7V68.781h-10.7v2.875h7.825V96.73Z" transform="translate(136.56 99.646)" fill="#c9d200"/>
</svg>
